<?xml version="1.0" encoding="UTF-8" standalone="no"?>
<svg viewBox="0 0 1000 150" xmlns="http://www.w3.org/2000/svg">
<defs>
<filter height="1.58182" id="filter9111" width="1.58182" x="-.29091" y="-.29091">
<feGaussianBlur stdDeviation="12.7273"/>
</filter>
<linearGradient gradientUnits="userSpaceOnUse" id="linearGradient3710" x1="520.89673" x2="521.72613" y1="146.43524" y2="65.74435">
<stop offset="0" stop-color="#6c94b1"/>
<stop offset="1" stop-color="#b3b3b3" stop-opacity="0"/>
</linearGradient>
</defs>
<path d="m0,0h1000v150h-1000z" fill="#fff"/>
<path d="m-1802,683.59448a52.5,52.5 0 1,1 -105,0 52.5,52.5 0 1,1 105,0z" fill="#fee872" filter="url(#filter9111)" transform="translate(2433.24,-600.76838)"/>
<path d="m.02453,46.61084h999.98767v99.82439h-999.98767z" fill="url(#linearGradient3710)"/>
<g transform="matrix(1.00003,0,0,.97521,-.01233,3.72234)">
<path d="m.01233,121.28368h999.96722v20.85891h-999.96722z" fill="#333"/>
<path d="m.01257,139.03503h999.9577v10.96027h-999.9577z"/>
</g>
<path d="m511.62065,124.80608c-2.21595,2.25621-20.3874,3.88057-24.77268.28658 .0274.0134-.86081-2.4597-.86081-2.4597s-1.28549-.21345-1.37905-.51035c.00094.0631-.19518-1.7802-.19518-1.7802s-1.63362-.0983-1.83653-.32254c-.006.01-.20843-3.16737-.20843-3.16737s-1.14687-.0528-1.31181-.29524c-.0137.0402-.0132-1.85866-.0132-1.85866 .0173.0109-.89168.0956-1.19467-.22889-.0252.002-.06-2.62328-.06-2.62328s-.65006.0684-.8929-.18904c-.0126-.11889-.0329-2.54009-.0329-2.54009-.78938-.0526-.68249-.37495-.68249-.37495l.0828-2.3238c-.24998-.0395-.59922-.32602-.55975-.451l.14231-2.33254c-.37495-.17103-.42863-.57229-.42863-.64466l.23604-2.12911c0,0-.0211.0424-.23591-.11712-.0952-.0826.17996-1.75396.29179-1.82631 .38645-.48294.0173.0986-.21621-.60801-.0257-.15498.32596-2.31563.75622-2.52046 .21396-.06 3.25205-.60884 4.90185-.64674-.0485.019 3.85276,0 3.85276,0 13.34127,1.74834 24.15629,13.20369 26.40152,25.17962 .0549.0536-1.53645.94986-1.72243.8374l-.0274,2.50551c.003.38055-.0197.76077-.0343,1.14095z" fill="#0e0e0e" fill-rule="evenodd"/>
<g transform="translate(-17.29677,-130.47781)">
<path d="m436.17794,249.92958-3.80148-13.79062-.13507-2.6113 1.15097,2.32239 4.22629,13.26913z" fill="#0d0d0d" fill-rule="evenodd"/>
<path d="m434.29032,237.72219-.24804-3.15901 1.30565,2.8364 2.97146,11.30058-.94546.31516z" fill="#0d0d0d" fill-rule="evenodd"/>
<path d="m440.81192,248.16709-2.71764-12.5684-.22511-2.70134 .9463,2.58838 3.34712,12.32118z" fill="#0d0d0d" fill-rule="evenodd"/>
<path d="m446.28833,246.02134-1.12556-7.4962 .045-3.42169 1.12555,3.28662 1.17058,7.60876-1.2156.0225z" fill="#0d0d0d" fill-rule="evenodd"/>
<path d="m448.77579,245.93505-1.04084-10.37013-.015-2.7255 .69514,2.60192 1.44309,10.46188-1.08241.0318z" fill="#0d0d0d" fill-rule="evenodd"/>
<path d="m459.12275,244.55639 .25951-9.43004 .39438-2.57345 .34233,2.56632 .12734,9.42332-1.12356.0138z" fill="#0d0d0d" fill-rule="evenodd"/>
<path d="m462.41113,244.78898 .15918-5.72214 .76405-3.7566 .61461,3.78057-.10524,5.82551z" fill="#0d0d0d" fill-rule="evenodd"/>
<path d="m469.62282,245.27888 1.09739-9.65029 .62173-2.84572 .11449,2.86895-.87805,9.81806z" fill="#0d0d0d" fill-rule="evenodd"/>
<path d="m477.2506,246.69741 1.87419-8.20361 1.27342-3.47008-.31835,3.75835-1.65135,8.39287z" fill="#0d0d0d" fill-rule="evenodd"/>
<path d="m479.42986,247.36479 2.33728-11.19499 .19102-2.99254-.86308,2.72925-2.62029,11.23542z" fill="#0d0d0d" fill-rule="evenodd"/>
<path d="m484.05594,249.15307 3.75996-11.90086 1.27342-2.67419-.38027,2.95151-3.28418,12.35575z" fill="#0d0d0d" fill-rule="evenodd"/>
<path d="m473.5268,266.73157c0,0-16.95088.58529-17.71626.09-.0901.045-1.55327,1.44071-2.16107,2.67883 .0225-.0675-.76538-.0901-.76538-.0901s.59718-1.73933.45391-2.2487c-.0478.0637-2.89703-.58896-3.74067-.68447 .0637.0318-.79589.12734-1.11425,2.62644 .0159-.0955-.73221-.0159-.73221-.0159s0-2.49909-.82773-2.84928c-.0318-.0159-10.25963-1.51172-13.77284-2.29216 0,0-2.41553,1.00282-3.17958,1.95789l-.38203-.15918c0,0 2.02156-2.22849 1.94197-2.9448-.0478-.0159.0692-.68342-1.12956-.54273-.0169.0113-2.88705,1.95284-3.25848,2.45934l-.31515-.24199c0,0 1.76712-3.02213 1.06927-3.71997-.0225-.0225-1.6667-2.06143-2.68544-1.88633 .0637-.0478-4.34554,1.36893-4.34554,1.36893l-.0318-.26264c0,0 2.02951-1.21771 1.96584-1.2973 0,0-2.17411.47905-2.18537.65914l-.045-.2026 3.56801-3.02774c.33767-.31516 4.90144-3.56144 11.58539-6.66455 .66028-.30654 9.41003-5.2481 26.33818-5.3131-.0955,0 18.91703-1.0563 35.26011,12.00015 0,0 1.28313,1.39569 2.34115,2.29615 .045.13506-.15757.0675-.15757.0675s-2.88143-1.4182-3.39918-.45022c-.0225,0-.67534,1.53076-.0675,2.70134s1.8234,2.88142 1.8234,2.88142l-.15757.09c0,0-2.58878-2.88142-3.80438-2.54375 .11255.045-1.30565.2026 1.91344,3.37667 .0225,0-.2026.2026-.2026.2026s-2.90393-2.31865-4.02949-2.16107c-.94547.22511-10.06247,2.67883-10.06247,2.67883s-.78789,1.73335-.31516,2.97146c-.09.0225-.47273.15758-.47273.15758s-1.19309-2.52125-1.59829-2.52125c-.87794.0901-3.39918.72036-3.39918.72036s.42771,1.8234.8104,2.29613c-.54027.0225-.54027.045-.54027.045s-2.11605-2.20609-2.47622-2.20609z" fill="#0d0d0d" fill-rule="evenodd"/>
</g>
<path d="m896.90259,139.47916c-.1664.59476-.8934,1.43033-.9566,1.48053-5.0333,4.00094-18.3406,4.67598-25.5742-.49576-.2858-.20433-1.5687-1.82268-1.5687-1.86554-1.3001-11.12343-9.1322-79.28232 12.66-105.63671h2.3492c22.9711,23.14671 14.207,106.38752 13.0903,106.51748z" fill-rule="evenodd"/>
<g transform="translate(2.36137,-269.38828)">
<path d="m538.03125,355.34375-2.1875,7.78125h-.53125c-.41901-1.15075-1.0625-3.5-1.0625-3.5l.3125-.0625v-.0625l-.34375-.0625-.25-1.3125-.125-1.1875-.125,1.1875-.28125,1.3125-.3125.0625v.0625l.28125.0625-.84375,5.25v35.5h10.9375v-35.5l-.84375-5.25 .28125-.0625v-.0625l-.3125-.0625-.28125-1.3125-.125-1.1875-.125,1.1875-.25,1.3125-.34375.0625v.0625l.3125.0625c0,0-.64349,2.34925-1.0625,3.5h-.53125z" fill-rule="evenodd"/>
<path d="m573.3097,367.90625c-.20589.0279-.60702.17173-.60702.75 0,.77103.54313.75.54313.75v.65625h-1.34186v-.21875c0,0 .0276-.59375-.47923-.59375s-.51118.59375-.51118.59375v.59375h-27.47604v3.90625h30 30v-3.90625h-27.47604v-.59375c0,0-.004-.59375-.51118-.59375s-.47923.59375-.47923.59375v.21875h-1.34186v-.65625c0,0 .54313.021.54313-.75s-.73482-.75-.73482-.75-.0592-.009-.1278,0z" fill-rule="evenodd"/>
<path d="m453.29084,402.86942 76.16472.0108 .00049-.43193c-.007,0-67.75429-.14344-76.16955-.14901l.004.57011z" fill-rule="evenodd"/>
<path d="m453.29762,400.2694h76.29615v1.44839h-76.29573l-.00048-1.44839z" fill-rule="evenodd"/>
<path d="m529.12278,400.26578h17.90847v10.08219h-18l.0915-10.08219z" fill-rule="evenodd"/>
<path d="m452.09375,379.75c0,0-.21875.0562-.21875.25s.15625.21875.15625.21875l-.0312,1.375h-.375v.28125h.125c0,0 .0446.39478-.0312.6875-1.002,2.6116-1.9375,2.90625-1.9375,2.90625h-1.125l-.53125,1.0625-.0312,3.5625h-.5625v.8125h.59375v8.375l-.6875,1.71875 .0312,9.34797h9.25l.0312-9.34797-.6875-1.71875v-8.375h.625v-.8125h-.59375l-.0312-3.5625-.53125-1.0625h-1.125c0,0-.9355-.29465-1.9375-2.90625-.0758-.29272-.0312-.6875-.0312-.6875h.125v-.28125h-.375l-.0312-1.375c0,0 .15625-.0249.15625-.21875s-.21875-.25-.21875-.25z" fill-rule="evenodd"/>
<path d="m485.15116,397.45705c-.30113.0296-.90625.17662-.90625.875 0,.93119.5625.65986.5625.9375s-.5625.6992-.5625.6992c-.0113.95832.009,1.91667 0,2.875h1.0625 1.0625c-.009-.95833.0113-1.91668 0-2.875 0,0-.5625-.4216-.5625-.6992s.5625-.006.5625-.9375-1.0625-.875-1.0625-.875-.0559-.01-.15625,0z" fill-rule="evenodd"/>
<path d="m527.56215,378.34375v22.13545h.5v-22.52608z"/>
<path d="m522.56215,382.7598v17.7194h.5v-18.07295z"/>
<path d="m517.56215,386.53796v13.98544h.5v-14.2727z"/>
<path d="m512.56215,389.77518v10.70402h.5v-10.99128z"/>
<path d="m507.56215,392.37159v8.10761h.5v-8.39487z"/>
<path d="m502.56215,394.51501v5.96419h.5v-5.96419z"/>
<path d="m497.56215,396.19439v4.28481h.5v-4.28481z"/>
<path d="m492.56215,397.44287v3.03633h.5v-3.03633z"/>
<path d="m487.56215,398.3378v2.1414h.5v-2.1414z"/>
<path d="m482.56215,398.49219v1.98701h.5v-1.98701z"/>
<path d="m477.56215,398.53125v1.94795h.5v-1.94795z"/>
<path d="m472.56215,398.09375v2.38545h.5v-2.38545z"/>
<path d="m467.56215,397.10938v3.36982h.5v-3.36982z"/>
<path d="m462.56215,395.79688v4.68232h.5v-4.68232z"/>
<path d="m457.56215,393.84375v6.63545h.5v-6.43232z"/>
<path d="m533.07813,373.70463c-30.06467,43.13963-78.18429,20.37617-78.18429,20.37617" fill="none" stroke="#000" stroke-width=".5"/>
<path d="m533.07813,372.70463c-38.28584,42.53428-78.18429,19.93423-78.18429,19.93423" fill="none" stroke="#000" stroke-width=".5"/>
<path d="m527.78892,380.36213-5.08233,2.2981-4.88345,6.7838-5.07314.39972-4.9375,5.32813-5-.59375-4.95312,3.875-5.07813-.92188-4.85937,2.34375-5.04688-1.25-5.07812,1.09375-5.0625-1.5-4.70313.0625-5.125-2.35937-5.03125-.70313" fill="none" stroke="#000" stroke-width=".2"/>
<path d="m527.61215,378.48388-4.70668,6.78381-5.14863,1.37001-4.90555,6.01041-5.17072-.24307-4.88345,4.68459-5.12653-.7734-4.81716,3.11569-4.97185-1.12695-5.06023,1.54679-5.03814-1.17114-4.97184.48613-4.99394-1.98874-4.94975-.28726-4.99394-2.82842" fill="none" stroke="#000" stroke-width=".2"/>
<g transform="matrix(.96593,-.25882,.25882,.96593,-88.1832,140.89691)">
<path d="m543.78125,414.41464v1.46521l24.284.0611c-4.68523.30725-10.29982,1.20285-15.04884,2.10622-2.85972.54398-9.23516,1.49573-9.23516,1.49573v.4884c0,0 6.47318-.95292 9.32673-1.49573 5.70711-1.08562 12.6813-2.18624 17.70452-2.22832v-1.86203z" fill-rule="evenodd"/>
<path d="m545.9125,415.30052v4.39178" fill="none" stroke="#000" stroke-width=".2"/>
<path d="m548.4125,415.30052v3.9699" fill="none" stroke="#000" stroke-width=".2"/>
<path d="m550.9125,415.30052v3.48553" fill="none" stroke="#000" stroke-width=".2"/>
<path d="m553.4125,415.30052v2.93865" fill="none" stroke="#000" stroke-width=".2"/>
<path d="m555.9125,415.30052v2.51678" fill="none" stroke="#000" stroke-width=".2"/>
<path d="m558.4125,415.30052v2.11053" fill="none" stroke="#000" stroke-width=".2"/>
<path d="m560.9125,415.30052v1.68865" fill="none" stroke="#000" stroke-width=".2"/>
<path d="m563.4125,415.30052v1.3449" fill="none" stroke="#000" stroke-width=".2"/>
<path d="m565.9125,415.30052v1.01678" fill="none" stroke="#000" stroke-width=".2"/>
</g>
<path d="m608.56258,355.34375 2.1875,7.78125h.53125c.41901-1.15075 1.0625-3.5 1.0625-3.5l-.3125-.0625v-.0625l.34375-.0625 .25-1.3125 .125-1.1875 .125,1.1875 .28125,1.3125 .3125.0625v.0625l-.28125.0625 .84375,5.25v35.5h-10.9375v-35.5l.84375-5.25-.28125-.0625v-.0625l.3125-.0625 .28125-1.3125 .125-1.1875 .125,1.1875 .25,1.3125 .34375.0625v.0625l-.3125.0625c0,0 .64349,2.34925 1.0625,3.5h.53125z" fill-rule="evenodd"/>
<path d="m759.55299,402.86942-142.41472.0108-.00049-.43193l142.41955-.14901-.004.57011z" fill-rule="evenodd"/>
<path d="m759.54621,400.2694h-142.54615v1.44839h142.54573l.00048-1.44839z" fill-rule="evenodd"/>
<path d="m617.47105,400.26578h-17.90847v10.08219h18l-.0915-10.08219z" fill-rule="evenodd"/>
<path d="m694.50008,379.75c0,0 .21875.0562.21875.25s-.15625.21875-.15625.21875l.0312,1.375h.375v.28125h-.125c0,0-.0446.39478.0312.6875 1.002,2.6116 1.9375,2.90625 1.9375,2.90625h1.125l.53125,1.0625 .0312,3.5625h.5625v.8125h-.59375v8.375l.6875,1.71875-.0312,9.34797h-9.25l-.0312-9.34797 .6875-1.71875v-8.375h-.625v-.8125h.59375l.0312-3.5625 .53125-1.0625h1.125c0,0 .9355-.29465 1.9375-2.90625 .0758-.29272.0312-.6875.0312-.6875h-.125v-.28125h.375l.0312-1.375c0,0-.15625-.0249-.15625-.21875s.21875-.25.21875-.25z" fill-rule="evenodd"/>
<path d="m661.44267,397.45705c.30113.0296.90625.17662.90625.875 0,.93119-.5625.65986-.5625.9375s.5625.6992.5625.6992c.0113.95832-.009,1.91667 0,2.875h-1.0625-1.0625c.009-.95833-.0113-1.91668 0-2.875 0,0 .5625-.4216.5625-.6992s-.5625-.006-.5625-.9375 1.0625-.875 1.0625-.875 .0559-.01.15625,0z" fill-rule="evenodd"/>
<path d="m619.03168,378.34375v22.13545h-.5v-22.52608z"/>
<path d="m624.03168,382.7598v17.7194h-.5v-18.07295z"/>
<path d="m629.03168,386.53796v13.98544h-.5v-14.2727z"/>
<path d="m634.03168,389.77518v10.70402h-.5v-10.99128z"/>
<path d="m639.03168,392.37159v8.10761h-.5v-8.39487z"/>
<path d="m644.03168,394.51501v5.96419h-.5v-5.96419z"/>
<path d="m649.03168,396.19439v4.28481h-.5v-4.28481z"/>
<path d="m654.03168,397.44287v3.03633h-.5v-3.03633z"/>
<path d="m659.03168,398.3378v2.1414h-.5v-2.1414z"/>
<path d="m664.03168,398.49219v1.98701h-.5v-1.98701z"/>
<path d="m669.03168,398.53125v1.94795h-.5v-1.94795z"/>
<path d="m674.03168,398.09375v2.38545h-.5v-2.38545z"/>
<path d="m679.03168,397.10938v3.36982h-.5v-3.36982z"/>
<path d="m684.03168,395.79688v4.68232h-.5v-4.68232z"/>
<path d="m689.03168,393.84375v6.63545h-.5v-6.43232z"/>
<path d="m613.5157,373.70463c30.06467,43.13963 78.18429,20.37617 78.18429,20.37617" fill="none" stroke="#000" stroke-width=".5"/>
<path d="m613.5157,372.70463c38.28584,42.53428 78.18429,19.93423 78.18429,19.93423" fill="none" stroke="#000" stroke-width=".5"/>
<path d="m618.80491,380.36213 5.08233,2.2981 4.88345,6.7838 5.07314.39972 4.9375,5.32813 5-.59375 4.95312,3.875 5.07813-.92188 4.85937,2.34375 5.04688-1.25 5.07812,1.09375 5.0625-1.5 4.70313.0625 5.125-2.35937 5.03125-.70313" fill="none" stroke="#000" stroke-width=".2"/>
<path d="m618.98168,378.48388 4.70668,6.78381 5.14863,1.37001 4.90555,6.01041 5.17072-.24307 4.88345,4.68459 5.12653-.7734 4.81716,3.11569 4.97185-1.12695 5.06023,1.54679 5.03814-1.17114 4.97184.48613 4.99394-1.98874 4.94975-.28726 4.99394-2.82842" fill="none" stroke="#000" stroke-width=".2"/>
<g transform="matrix(-.96593,-.25882,-.25882,.96593,1234.777,140.89691)">
<path d="m543.78125,414.41464v1.46521l24.284.0611c-4.68523.30725-10.29982,1.20285-15.04884,2.10622-2.85972.54398-9.23516,1.49573-9.23516,1.49573v.4884c0,0 6.47318-.95292 9.32673-1.49573 5.70711-1.08562 12.6813-2.18624 17.70452-2.22832v-1.86203z" fill-rule="evenodd"/>
<path d="m545.9125,415.30052v4.39178" fill="none" stroke="#000" stroke-width=".2"/>
<path d="m548.4125,415.30052v3.9699" fill="none" stroke="#000" stroke-width=".2"/>
<path d="m550.9125,415.30052v3.48553" fill="none" stroke="#000" stroke-width=".2"/>
<path d="m553.4125,415.30052v2.93865" fill="none" stroke="#000" stroke-width=".2"/>
<path d="m555.9125,415.30052v2.51678" fill="none" stroke="#000" stroke-width=".2"/>
<path d="m558.4125,415.30052v2.11053" fill="none" stroke="#000" stroke-width=".2"/>
<path d="m560.9125,415.30052v1.68865" fill="none" stroke="#000" stroke-width=".2"/>
<path d="m563.4125,415.30052v1.3449" fill="none" stroke="#000" stroke-width=".2"/>
<path d="m565.9125,415.30052v1.01678" fill="none" stroke="#000" stroke-width=".2"/>
</g>
<path d="m697.9375,393.8125 11.625,7.1875" fill="none" stroke="#000" stroke-width=".5"/>
<path d="m697.9375,392.8125 13.625,8.1875" fill="none" stroke="#000" stroke-width=".5"/>
</g>
<g transform="translate(-1.31149,-277.48544)">
<path d="m932.04654,418.63809-.0438-14.12599c0,0 1.20811-.16109 1.85243-.9128v-37.42392l-12.78269-.0008v37.42472c.64432.75171 1.85242.9128 1.85242.9128v13.93303c2.11294,1.83291 7.00689,1.38419 9.12165.19296z" fill-rule="evenodd"/>
<path d="m924.93343,368.94999-.0403-22.68716h5.08757l.0134,22.68185-5.06073.006z" fill-rule="evenodd"/>
<path d="m921.60901,362.80621v1.38581h11.7318v-1.40478l-11.7318.019z" fill-rule="evenodd"/>
<path d="m921.66596,358.85764v1.38581h11.7318v-1.40478l-11.7318.019z" fill-rule="evenodd"/>
<path d="m921.59003,354.90908v1.3858h11.7318v-1.40477l-11.7318.019z" fill-rule="evenodd"/>
<path d="m921.70393,350.94154v1.38579h3.315 8.4168v-1.40478l-11.7318.019z" fill-rule="evenodd"/>
<path d="m921.60901,346.91703v1.3858h11.7318v-1.40478l-11.7318.019z" fill-rule="evenodd"/>
<path d="m930.07583,346.55298c0,0 3.18923-.11389 3.7967-.53153-.019-.98715-.019-1.00613-.019-1.00613s-.20884-.18984-.77834-.28476v-.24678h.51254l.24678-.24678v-4.02451h.34171c0,0 .21251-.11616.28633-.31079v-5.2284c0,0-.28189-.32888-.65103-.44298 .0201-.0201 0-3.5639 0-3.5639-.40423-.66269-2.22774-.90357-3.4498-1.06716l.007-.27517c0,0 1.06044-.0738 1.24837-.30203 .0201,0 .38928-.32887.40942-.46311 .0134-.0268 0-2.44976 0-2.44976-.14238-.24678-1.23563-.67808-2.23499-.745l-4.65154.003c-.99936.0669-2.09261.49822-2.23499.745 0,0-.0134,2.42292 0,2.44976 .0201.13424.38928.46311.40942.46311 .18793.2282 1.24837.30203 1.24837.30203l.007.27518c-1.22206.16358-3.04557.40446-3.4498,1.06716 0,0-.0201,3.54376 0,3.56389-.36915.1141-.65103.44298-.65103.44298v5.2284c.0738.19463.28633.31079.28633.31079h.34171v4.02451l.24678.24679h.51254v.24678c-.5695.0949-.77834.28475-.77834.28475s0,.019-.019,1.00613c.60747.41763 3.7967.53154 3.7967.53154l5.22064-.003z" fill-rule="evenodd"/>
<path d="m921.97182,362.50343h-.65773l-.16108.40926-.81212.0134-.15437-.42922v-1.19111l.15437-.43347h.81212l.18122.43347v.97598h.93962v.56252h-.30203z" fill-rule="evenodd"/>
<path d="m932.54944,356.93496h-.96648c0,0-1.16784.87252-.0403,2.04035h1.26179c0,0 1.07387-1.22153-.25504-2.04035z" fill-rule="evenodd"/>
<path d="m932.6182,360.86142h-.96648c0,0-1.16784.84567-.0403,2.0135 .0268-.0403 1.2618.0537 1.2618.0537s1.07386-1.24837-.25505-2.06719z" fill-rule="evenodd"/>
<path d="m932.60308,352.99573h-.77717c0,0-.93907.851-.0324,2.02619 .0216-.0405 1.01463.054 1.01463.054s.86352-1.25622-.20508-2.08021z" fill-rule="evenodd"/>
<path d="m931.44768,349.67054h-.69507c0,0-.83989.85351-.029,2.03219 .0193-.0406.90747.0542.90747.0542s.77231-1.25996-.18343-2.08638z" fill-rule="evenodd"/>
<path d="m923.77916,353.32109h-.85117c0,0-1.02849.84885-.0355,2.02105 .0236-.0404 1.11124.0539 1.11124.0539s.94574-1.25305-.22461-2.07494z" fill-rule="evenodd"/>
<path d="m924.0558,357.14285h-.96452c0,0-1.16545.906-.0402,2.15713 .0268-.0431 1.25922.0575 1.25922.0575s1.07168-1.33742-.25452-2.21465z" fill-rule="evenodd"/>
<path d="m923.86449,360.99266h-.91704c0,0-1.10808.847-.0382,2.01669 .0255-.0403 1.19724.0538 1.19724.0538s1.01893-1.25035-.24199-2.07047z" fill-rule="evenodd"/>
<path d="m925.62957,315.38725 3.69159.0492-.12038,1.36036h-3.59797l.0268-1.40953z" fill-rule="evenodd" stroke="#000" stroke-width=".14293"/>
<path d="m929.05755,318.21472h-3.07032l.002,1.36555h3.04396l.0241-1.36555z" fill-rule="evenodd" stroke="#000" stroke-width=".18691"/>
<path d="m926.18238,321.1348h2.58606v1.49878h-2.57907l-.007-1.49878z" fill-rule="evenodd" stroke="#000" stroke-width=".20135"/>
<path d="m926.4263,323.81879h2.12641v.82899h-2.14118l.0147-.82899z" fill-rule="evenodd"/>
<path d="m926.44031,325.4372-.88273-9.98532 3.81568.0569-.89222,9.93787-2.04073-.01z" fill="none" stroke="#000" stroke-width=".32396"/>
<path d="m927.56034,315.69465v-6.85304" fill="none" stroke="#000" stroke-width=".311"/>
<path d="m921.92494,358.62843h-.65773l-.16108.40926-.81212.0134-.15437-.42922v-1.19111l.15437-.43347h.81212l.18122.43347v.97598h.93962v.56252h-.30203z" fill-rule="evenodd"/>
<path d="m921.81556,354.70655h-.65773l-.16108.40926-.81212.0134-.15437-.42922v-1.19111l.15437-.43347h.81212l.18122.43347v.97598h.93962v.56252h-.30203z" fill-rule="evenodd"/>
<path d="m922.90931,350.72217h-.65773l-.16108.40926-.81212.0134-.15437-.42922v-1.19111l.15437-.43347h.81212l.18122.43347v.97598h.93962v.56252h-.30203z" fill-rule="evenodd"/>
</g>
<path d="m743.26561,140.95928v-2.3096l.25662-.25663-.0128-7.50621c0,0-.3721-.46192-.29511-.53891-.0257-.0898-.0257-.5774-.0257-.5774h.37211v-7.0058l-.34644-.24379v-.21813l.34644.0128-.34644-.41059v-.38494l-.45499-.26268v-.34038l.42932-.29512v-.44909l.29512-.2053v-1.64238h-.26945l-.14876-.25765v-.24277l.15778-.15777h1.35108v1.20993h.26945v.20529h.55174v-.20529h.75704v.25662h.43626v.24379h.3721v.15398l.26423.0708v-.90483l.21052-.38493 .17964-.17964h1.80919v.2053h2.11713v-.26946h1.98883v.25663h5.18378v-.30795h1.96316v.30795h5.24793v-.34644h1.92468v.34644h5.05546v-.33361h2.29677v.29512h1.83486v-.28229h-.28229v-.50041h-.2053v-.42343h.56457v-3.23985h-.3721v-.91743h.16681v-6.4096-1.29549l-.4491-.4491v-.39134l.59024-.22456v-1.00723l-.16205-.0434v-.25811l.71378-.44909 1.05216-.31437h1.12914v-2.9255l-.43073-.33114v-.54439h.44356v-.17691h.18701l-.0358-.13379h-.14562l-.17354-.17355v-.20075l.49194-.28402v-.6447h.21691c.35359-2.98299 2.12255-8.73845 7.42727-10.61134l1e-005-.40905h.23031v-.25406c0,0-.41113.0427-.46858-.23478 0-.0726-.0226-.3051.24332-.41206l.16175-.0117v-.8661h.13472v-.46834h.1604v.42343h.33999v-.7442h-.18602v-.44909h.35927v-3.25911l-.39777-.32078v-.25662h.4332v-1.02199l.40829.40828v.49902h.31755v-1.85089h-.41735v-.32663h.23589v-.99803c0,0 .53531-.84379.86193-.84379v-.30847l-.28126-.14517v-.14517h.30848v-.78455h.23758c0,0-.20209-.13793-.22454-.26945l-.006-.30153c0,0 .0834-.14757.17963-.15398l.12832-.006v-.16712c-.92526-.45365-.19855-1.3192-.006-1.22939l.0253-1.59956 .1551-.86611 .1551.86611 .0253,1.59956c.19247-.0898.91917.77574-.006,1.22939v.16712l.12831.006c.0962.006.17964.15398.17964.15398l-.006.30153c-.0225.13152-.22455.26945-.22455.26945h.23758v.78455h.30848v.14517l-.28126.14517v.30847c.32663,0 .86193.84379.86193.84379v.99803h.2359v.32663h-.41735v1.85089h.31755v-.49902l.40828-.40828v1.02199h.4332v.25662l-.39777.32078v3.25911h.35928v.44909h-.18603v.7442h.34v-.42343h.16039v.46834h.13473v.8661l.16175.0117c.26587.10696.24332.33946.24332.41206-.0575.27749-.46859.23478-.46859.23478v.25406h.23032v.40905c5.30472,1.87289 7.07369,7.62835 7.42728,10.61134h.21691v.6447l.49193.28402v.20075l-.17354.17355h-.14561l-.0358.13379h.18701v.17691h.44356v.54439l-.43072.33114v2.9255h1.12913l1.05216.31437 .71379.44909v.25811l-.16205.0434v1.00723l.59023.22456v.39134l-.44909.4491v1.29549 6.4096h.1668v.91743h-.3721v3.23985h.56457v.42343h-.2053v.50041h-.28229v.20095h2.55433v-.37276h2.29594v.37308h5.08933v-.32525h1.97068v.36352h5.29022v-.35396h2.00895v.33483h4.66046v-.32062h2.52992v.29763h10.11965v-1.85345l-.29764-.22323-.0135-1.19731 .3044-.13529v-.45998h-.29764v-1.54231h.89968v-.60881l.44307.007-.27743-.3731-.14349-.17219-.0191-.38266 .32168.008v-.48705h.14206v-4.13984l-.24337-.14052-.36386-.17663v-.5893h.60723v-.89967h.17588v-.62909h.29086 .15053v-.78057h-.18176v-.26784h.18176v-.33483h.28699v.32526h.16263v.27741h-.16263v.44963h.22959l.26786-.43048v-1.35843h-.20089v-.44389h.30612v-.45536h.22959v-.31568h-.22002v-.34439h.20089v-.32526h.15307l-.033-.12321h.19564l-.0173-.5872 .28411-.38557v-.75035l.51762-.84184h.10523c0,0 .0478-.45919.27743-.49745 0-.0191.0175-.33599.0175-.33599-.20293-.0271-.29544-.39516-.0113-.51693 .002.00058-.009-.31029-.007-.31115-.32884-.10284-.33094-.64542.12072-.66052 .45165.016.44955.55852.12071.66137 .002.00086-.009.31173-.007.31115 .28412.12177.1916.48987-.0113.51693 0,0 .0175.31685.0175.33599 .22959.0383.27742.49745.27742.49745h.10524l.51761.84184v.75034l.28411.38558-.0173.58718h.19565l-.033.12321h.15306v.32526h.2009v.3444h-.22003v.31569h.2296v.45535h.30612v.44389h-.2009v1.35843l.26786.43049h.2296v-.44963h-.16263v-.27742h.16263v-.32525h.28699v.33481h.18176v.26786h-.18176v.78057h.15052 .29087v.62908h.17587v.89968h.60724v.5893l-.36386.17663-.24338.14052v4.13984h.14205v.48705l.32169-.008-.0191.38265-.1435.1722-.27742.3731 .44307-.007v.60881h.89967v1.54229h-.29764v.45998l.3044.13529-.0135,1.19731-.29764.22323v1.49458h1.21827v-.34602c0,0-.22003-.19133-.20089-.33482 0,.0383.005-.58833.005-.58833s.0478-.19611.15306-.24874c-.0143-.0143 0-1.28668 0-1.28668l.13872-.13392c0,0-.0723-.26155.1645-.2717-.0135,0 .2486-.008.16573.31116 0-.005.23897.13752.23897.13752v.34439h-.10044v.14828h.16263l-.005,1.18145h-.15306v1.08578 1.86815l.29809.1894v1.00791h-.14882v.58851h-.16236v5.54686h.47352v.91321h.31793v.61557h-.15558v.27734h-.47351v.90644h.18263v.64939h-.17586v.56822h-.16236v7.10269h.31118v.29087h.1691v.16911h.15559v2.41492l-108.79243.009z" fill-rule="evenodd"/>
<g transform="translate(-5.39756,-212.8588)">
<path d="m724.24986,301.49763-.0937,1.90625c-.3728.0423-.65625.29796-.65625.625 0,.26728.19506.49579.46875.59375 .0489.47827-.21884,2.43272-.25,2.4375-2.61951.44082-2.78125,2.875-2.78125,2.875h-.6875v1.40625h.71875l-.0312,9.8125h6.75l-.0312-9.8125h.71875v-1.40625h-.6875c0,0-.16174-2.43418-2.78125-2.875-.0312-.005-.2989-1.95923-.25-2.4375 .27369-.098.46875-.32647.46875-.59375 0-.32704-.28345-.5827-.65625-.625l-.0937-1.90625z" fill="#1a1a1a"/>
<path d="m704.31659,301.49763-.0937,1.90625c-.3728.0423-.65625.29796-.65625.625 0,.26728.19506.49579.46875.59375 .0489.47827-.21884,2.43272-.25,2.4375-2.61951.44082-2.78125,2.875-2.78125,2.875h-.6875v1.40625h.71875l-.0312,9.8125h6.75l-.0312-9.8125h.71875v-1.40625h-.6875c0,0-.16174-2.43418-2.78125-2.875-.0312-.005-.2989-1.95923-.25-2.4375 .27369-.098.46875-.32647.46875-.59375 0-.32704-.28345-.5827-.65625-.625l-.0937-1.90625z" fill="#1a1a1a"/>
<path d="m733.76832,297.96875-.0937,1.90625c-.3728.0423-.65625.29796-.65625.625 0,.26728.19506.49579.46875.59375 .0489.47827-.21884,2.43272-.25,2.4375-2.61951.44082-2.78125,2.875-2.78125,2.875h-.6875v1.40625h.71875l-.0312,11.40349h6.75l-.0312-11.40349h.71875v-1.40625h-.6875c0,0-.16174-2.43418-2.78125-2.875-.0312-.005-.2989-1.95923-.25-2.4375 .27369-.098.46875-.32647.46875-.59375 0-.32704-.28345-.5827-.65625-.625l-.0937-1.90625z"/>
<path d="m693.46634,297.96875-.0937,1.90625c-.3728.0423-.65625.29796-.65625.625 0,.26728.19506.49579.46875.59375 .0489.47827-.21884,2.43272-.25,2.4375-2.61951.44082-2.78125,2.875-2.78125,2.875h-.6875v1.40625h.71875l-.0312,9.8125h6.75l-.0312-9.8125h.71875v-1.40625h-.6875c0,0-.16174-2.43418-2.78125-2.875-.0312-.005-.2989-1.95923-.25-2.4375 .27369-.098.46875-.32647.46875-.59375 0-.32704-.28345-.5827-.65625-.625l-.0937-1.90625z"/>
<path d="m730.0936,315.90493h-2.32795v1.56672h-1.5156v-1.56672h-2.375v1.56672h-1.5v-1.56672h-2.3594v1.56672h-1.4844v-1.56672h-2.3594v1.56672h-1.51565v-1.56672h-2.3594v1.56672h-1.4844v-1.56672h-2.3594v1.56672h-1.4844v-1.56672h-2.375v1.56672h-1.5v-1.56672h-2.375v1.57062h-1.5v-1.55078h-9.0625l.0937,26.40625h44c0,0 9.0484-.18125 9.5625-1.28125v-24.5625c-.3788-.07-1.21875-.1875-1.21875-.1875v1.47529l-1.125-.10775v-1.46129l-1.59375-.125v1.46093l-1.1875-.0703v-1.50422l-1.4844-.0625v1.59792l-3.2344-.0312v-1.56672h-2.3594v1.56672h-1.5155z" fill-rule="evenodd"/>
</g>
<g transform="translate(-34.26733,-148.86259)">
<path d="m433.48306,271.4375h10.99585v-1.57371h-1.0895v-1.29126h-1.2509v-2.94568l-.76316-.4406v-4.28055l.72281-.50439v-.5044l-.78686-.48422v-.44387l.01-.32368c0,0 .0143-.27106-.24253-.28533 .0143-.0143.15693-.45652-.19973-.61346 .0428,0-.24253-29.6315-.24253-29.6315s-.19489-.15386-.31858-.18393c.0618-.0301.34711-2.45537 1.0319-3.02603 .00047-.0513-.003-.1039-.003-.1039l-.13619-.0101v-.17149l.16645-.0706v-.14123c0,0-.68094-.0555-.80703-.32786-.005-.0252-.27742-1.377-.95836-1.52328 .0325-.003-.47917-.005-.53504-.004l-.53504.006c-.55981.079-.95331,1.49806-.95835,1.52328-.1261.27237-.80704.32786-.80704.32786v.14123l.16646.0706v.1715l-.13619.0101c0,0-.004.0526-.003.10389 .68479.57066.97012,2.99597 1.0319,3.02604-.12369.0301-.31857.18392-.31857.18392s-.28533,29.6315-.24253,29.6315c-.35667.15693-.214.5992-.19973.61346-.2568.0143-.24253.28533-.24253.28533l.01.32368v.44387l-.78686.48422v.5044l.7228.50439v4.28054l-.76315.44061v2.94568h-1.25091v1.29126h-1.0895v1.57371h10.99585" fill-rule="evenodd"/>
<path d="m438.17694,222.74908-.99592-.009c0,0 .28711-.38581.323-.61909 .0538-.23328.36786-.27814.41272-.44862 0,.0538.26918-1.68679.38582-1.75857s-.10767-.0987-.10767-.0987-.0718.18842-.18842.19739c-.10767.009-.20636-.5204-.20636-.5204l-.009-.59217 .0807-.0538 .018-.17945 .28711-.0628c0,0 .11664.0179.21534.10767 .009,0 .12561-.13458.23328-.10767 .0987.009.0359-.35889.0359-.35889l-.30506-.0179c0,0 .19739-.92415.65498-.98696 .009,0-.0112-.12278.0179-.13458 .083-.0336.14295-.0155.16151,0 .0135.0112.0179.18842.0179.18842s.17945.12561.26917.25122c-.009-.0538.15253.25123.15253.25123s.0908.0116.0987.018c.0223.0179-.001.17518-.009.19739-.004.0123-.2243.0538-.2243.0538l-.13459.0718-.0628.0359-.0179.45759 .21534.10766 .0359.0718c0,0 .19687-.021.32301,0 .0269.004.14355.19739.10767.38581-.018.18842.0807.47554.0807.47554l.12561.28711 .0808.34992 .18842.0449 .0718.13459-.009.11664-.21534.0897-.47553,2.02774-.14356-.0538 .52039-2.01877c0,0-.11664.009-.17047-.0449s-.28711-.59218-.27814-.70882c-.0179-.018-.0897-.0269-.0897-.0269v.24226l.0628.0359-.009,1.13948-.13459.60115-.26019.0269c0,0-.0807.19739-.0269.25122 0,.0179.36787.0359.35889.4217-.0718-.0179-1.46249.17945-1.46249.1615z" fill-rule="evenodd"/>
</g>
<g transform="translate(-102.52038,-287.11177)">
<path d="m181.2996,45.92427a4.34028,4.34028 0 1,1 -8.68056,0 4.34028,4.34028 0 1,1 8.68056,0z" transform="matrix(.576,0,0,.576,356.9255,317.44659)"/>
<path d="m181.2996,45.92427a4.34028,4.34028 0 1,1 -8.68056,0 4.34028,4.34028 0 1,1 8.68056,0z" transform="matrix(.576,0,0,.576,356.96656,397.41094)"/>
<path d="m181.2996,45.92427a4.34028,4.34028 0 1,1 -8.68056,0 4.34028,4.34028 0 1,1 8.68056,0z" transform="matrix(.576,0,0,.576,356.9255,317.44659)"/>
<path d="m181.2996,45.92427a4.34028,4.34028 0 1,1 -8.68056,0 4.34028,4.34028 0 1,1 8.68056,0z" transform="matrix(.576,0,0,.576,356.96656,397.41094)"/>
<path d="m181.2996,45.92427a4.34028,4.34028 0 1,1 -8.68056,0 4.34028,4.34028 0 1,1 8.68056,0z" transform="matrix(.56341,.11976,-.11976,.56341,372.96585,297.70193)"/>
<path d="m181.2996,45.92427a4.34028,4.34028 0 1,1 -8.68056,0 4.34028,4.34028 0 1,1 8.68056,0z" transform="matrix(.56341,.11976,-.11976,.56341,356.38049,375.9274)"/>
<path d="m181.2996,45.92427a4.34028,4.34028 0 1,1 -8.68056,0 4.34028,4.34028 0 1,1 8.68056,0z" transform="matrix(.5262,.23428,-.23428,.5262,392.76083,281.72373)"/>
<path d="m181.2996,45.92427a4.34028,4.34028 0 1,1 -8.68056,0 4.34028,4.34028 0 1,1 8.68056,0z" transform="matrix(.5262,.23428,-.23428,.5262,360.27391,354.7915)"/>
<path d="m181.2996,45.92427a4.34028,4.34028 0 1,1 -8.68056,0 4.34028,4.34028 0 1,1 8.68056,0z" transform="matrix(.46599,.33856,-.33856,.46599,415.4453,270.21028)"/>
<path d="m181.2996,45.92427a4.34028,4.34028 0 1,1 -8.68056,0 4.34028,4.34028 0 1,1 8.68056,0z" transform="matrix(.46599,.33856,-.33856,.46599,368.47665,334.92694)"/>
<path d="m181.2996,45.92427a4.34028,4.34028 0 1,1 -8.68056,0 4.34028,4.34028 0 1,1 8.68056,0z" transform="matrix(.38542,.42805,-.42805,.38542,440.02783,263.66481)"/>
<path d="m181.2996,45.92427a4.34028,4.34028 0 1,1 -8.68056,0 4.34028,4.34028 0 1,1 8.68056,0z" transform="matrix(.38542,.42805,-.42805,.38542,380.63021,317.20192)"/>
<path d="m181.2996,45.92427a4.34028,4.34028 0 1,1 -8.68056,0 4.34028,4.34028 0 1,1 8.68056,0z" transform="matrix(.288,.49883,-.49883,.288,465.43406,262.37336)"/>
<path d="m181.2996,45.92427a4.34028,4.34028 0 1,1 -8.68056,0 4.34028,4.34028 0 1,1 8.68056,0z" transform="matrix(.288,.49883,-.49883,.288,396.20343,302.39109)"/>
<path d="m181.2996,45.92427a4.34028,4.34028 0 1,1 -8.68056,0 4.34028,4.34028 0 1,1 8.68056,0z" transform="matrix(.17799,.54781,-.54781,.17799,490.5536,266.39238)"/>
<path d="m181.2996,45.92427a4.34028,4.34028 0 1,1 -8.68056,0 4.34028,4.34028 0 1,1 8.68056,0z" transform="matrix(.17799,.54781,-.54781,.17799,414.51568,291.14178)"/>
<path d="m181.2996,45.92427a4.34028,4.34028 0 1,1 -8.68056,0 4.34028,4.34028 0 1,1 8.68056,0z" transform="matrix(.06021,.57284,-.57284,.06021,514.28863,275.54623)"/>
<path d="m181.2996,45.92427a4.34028,4.34028 0 1,1 -8.68056,0 4.34028,4.34028 0 1,1 8.68056,0z" transform="matrix(.06021,.57284,-.57284,.06021,434.76662,283.94562)"/>
<path d="m181.2996,45.92427a4.34028,4.34028 0 1,1 -8.68056,0 4.34028,4.34028 0 1,1 8.68056,0z" transform="matrix(-.06021,.57284,-.57284,-.06021,535.60181,289.43484)"/>
<path d="m181.2996,45.92427a4.34028,4.34028 0 1,1 -8.68056,0 4.34028,4.34028 0 1,1 8.68056,0z" transform="matrix(-.06021,.57284,-.57284,-.06021,456.07122,281.11712)"/>
<path d="m181.2996,45.92427a4.34028,4.34028 0 1,1 -8.68056,0 4.34028,4.34028 0 1,1 8.68056,0z" transform="matrix(-.17799,.54781,-.54781,-.17799,553.56162,307.4512)"/>
<path d="m181.2996,45.92427a4.34028,4.34028 0 1,1 -8.68056,0 4.34028,4.34028 0 1,1 8.68056,0z" transform="matrix(-.17799,.54781,-.54781,-.17799,477.49832,282.77991)"/>
<path d="m181.2996,45.92427a4.34028,4.34028 0 1,1 -8.68056,0 4.34028,4.34028 0 1,1 8.68056,0z" transform="matrix(-.288,.49883,-.49883,-.288,567.38316,328.80792)"/>
<path d="m181.2996,45.92427a4.34028,4.34028 0 1,1 -8.68056,0 4.34028,4.34028 0 1,1 8.68056,0z" transform="matrix(-.288,.49883,-.49883,-.288,498.11147,288.8613)"/>
<path d="m181.2996,45.92427a4.34028,4.34028 0 1,1 -8.68056,0 4.34028,4.34028 0 1,1 8.68056,0z" transform="matrix(-.38542,.42805,-.42805,-.38542,576.46236,352.57159)"/>
<path d="m181.2996,45.92427a4.34028,4.34028 0 1,1 -8.68056,0 4.34028,4.34028 0 1,1 8.68056,0z" transform="matrix(-.38542,.42805,-.42805,-.38542,517.00979,299.09551)"/>
<path d="m181.2996,45.92427a4.34028,4.34028 0 1,1 -8.68056,0 4.34028,4.34028 0 1,1 8.68056,0z" transform="matrix(-.46599,.33856,-.33856,-.46599,580.40241,377.70366)"/>
<path d="m181.2996,45.92427a4.34028,4.34028 0 1,1 -8.68056,0 4.34028,4.34028 0 1,1 8.68056,0z" transform="matrix(-.46599,.33856,-.33856,-.46599,533.36732,313.03528)"/>
<path d="m181.2996,45.92427a4.34028,4.34028 0 1,1 -8.68056,0 4.34028,4.34028 0 1,1 8.68056,0z" transform="matrix(-.5262,.23428,-.23428,-.5262,579.03111,403.1057)"/>
<path d="m181.2996,45.92427a4.34028,4.34028 0 1,1 -8.68056,0 4.34028,4.34028 0 1,1 8.68056,0z" transform="matrix(-.5262,.23428,-.23428,-.5262,546.46917,330.07133)"/>
<path d="m181.2996,45.92427a4.34028,4.34028 0 1,1 -8.68056,0 4.34028,4.34028 0 1,1 8.68056,0z" transform="matrix(-.56341,.11976,-.11976,-.56341,572.4084,427.66753)"/>
<path d="m181.2996,45.92427a4.34028,4.34028 0 1,1 -8.68056,0 4.34028,4.34028 0 1,1 8.68056,0z" transform="matrix(-.56341,.11976,-.11976,-.56341,555.74271,349.45913)"/>
<path d="m181.2996,45.92427a4.34028,4.34028 0 1,1 -8.68056,0 4.34028,4.34028 0 1,1 8.68056,0z" transform="matrix(-.576,0,0,-.576,560.8237,450.3157)"/>
<path d="m181.2996,45.92427a4.34028,4.34028 0 1,1 -8.68056,0 4.34028,4.34028 0 1,1 8.68056,0z" transform="matrix(-.576,0,0,-.576,560.78264,370.35135)"/>
<path d="m181.2996,45.92427a4.34028,4.34028 0 1,1 -8.68056,0 4.34028,4.34028 0 1,1 8.68056,0z" transform="matrix(-.56341,-.11976,.11976,-.56341,544.78335,470.06035)"/>
<path d="m181.2996,45.92427a4.34028,4.34028 0 1,1 -8.68056,0 4.34028,4.34028 0 1,1 8.68056,0z" transform="matrix(-.56341,-.11976,.11976,-.56341,561.36871,391.83488)"/>
<path d="m181.2996,45.92427a4.34028,4.34028 0 1,1 -8.68056,0 4.34028,4.34028 0 1,1 8.68056,0z" transform="matrix(-.5262,-.23428,.23428,-.5262,524.98837,486.03856)"/>
<path d="m181.2996,45.92427a4.34028,4.34028 0 1,1 -8.68056,0 4.34028,4.34028 0 1,1 8.68056,0z" transform="matrix(-.5262,-.23428,.23428,-.5262,557.47529,412.97079)"/>
<path d="m181.2996,45.92427a4.34028,4.34028 0 1,1 -8.68056,0 4.34028,4.34028 0 1,1 8.68056,0z" transform="matrix(-.46599,-.33856,.33856,-.46599,502.3039,497.55199)"/>
<path d="m181.2996,45.92427a4.34028,4.34028 0 1,1 -8.68056,0 4.34028,4.34028 0 1,1 8.68056,0z" transform="matrix(-.46599,-.33856,.33856,-.46599,549.27255,432.83533)"/>
<path d="m181.2996,45.92427a4.34028,4.34028 0 1,1 -8.68056,0 4.34028,4.34028 0 1,1 8.68056,0z" transform="matrix(-.38542,-.42805,.42805,-.38542,477.72137,504.09748)"/>
<path d="m181.2996,45.92427a4.34028,4.34028 0 1,1 -8.68056,0 4.34028,4.34028 0 1,1 8.68056,0z" transform="matrix(-.38542,-.42805,.42805,-.38542,537.11899,450.56037)"/>
<path d="m181.2996,45.92427a4.34028,4.34028 0 1,1 -8.68056,0 4.34028,4.34028 0 1,1 8.68056,0z" transform="matrix(-.288,-.49883,.49883,-.288,452.31514,505.38893)"/>
<path d="m181.2996,45.92427a4.34028,4.34028 0 1,1 -8.68056,0 4.34028,4.34028 0 1,1 8.68056,0z" transform="matrix(-.288,-.49883,.49883,-.288,521.54577,465.3712)"/>
<path d="m181.2996,45.92427a4.34028,4.34028 0 1,1 -8.68056,0 4.34028,4.34028 0 1,1 8.68056,0z" transform="matrix(-.17799,-.54781,.54781,-.17799,427.19559,501.36991)"/>
<path d="m181.2996,45.92427a4.34028,4.34028 0 1,1 -8.68056,0 4.34028,4.34028 0 1,1 8.68056,0z" transform="matrix(-.17799,-.54781,.54781,-.17799,503.23351,476.62052)"/>
<path d="m181.2996,45.92427a4.34028,4.34028 0 1,1 -8.68056,0 4.34028,4.34028 0 1,1 8.68056,0z" transform="matrix(-.06021,-.57284,.57284,-.06021,403.46056,492.21605)"/>
<path d="m181.2996,45.92427a4.34028,4.34028 0 1,1 -8.68056,0 4.34028,4.34028 0 1,1 8.68056,0z" transform="matrix(-.06021,-.57284,.57284,-.06021,482.98257,483.81667)"/>
<path d="m181.2996,45.92427a4.34028,4.34028 0 1,1 -8.68056,0 4.34028,4.34028 0 1,1 8.68056,0z" transform="matrix(.06021,-.57284,.57284,.06021,382.1474,478.32746)"/>
<path d="m181.2996,45.92427a4.34028,4.34028 0 1,1 -8.68056,0 4.34028,4.34028 0 1,1 8.68056,0z" transform="matrix(.06021,-.57284,.57284,.06021,461.67799,486.64517)"/>
<path d="m181.2996,45.92427a4.34028,4.34028 0 1,1 -8.68056,0 4.34028,4.34028 0 1,1 8.68056,0z" transform="matrix(.17799,-.54781,.54781,.17799,364.18758,460.31109)"/>
<path d="m181.2996,45.92427a4.34028,4.34028 0 1,1 -8.68056,0 4.34028,4.34028 0 1,1 8.68056,0z" transform="matrix(.17799,-.54781,.54781,.17799,440.25088,484.98238)"/>
<path d="m181.2996,45.92427a4.34028,4.34028 0 1,1 -8.68056,0 4.34028,4.34028 0 1,1 8.68056,0z" transform="matrix(.288,-.49883,.49883,.288,350.36604,438.95437)"/>
<path d="m181.2996,45.92427a4.34028,4.34028 0 1,1 -8.68056,0 4.34028,4.34028 0 1,1 8.68056,0z" transform="matrix(.288,-.49883,.49883,.288,419.63773,478.90099)"/>
<path d="m181.2996,45.92427a4.34028,4.34028 0 1,1 -8.68056,0 4.34028,4.34028 0 1,1 8.68056,0z" transform="matrix(.38542,-.42805,.42805,.38542,341.28685,415.1907)"/>
<path d="m181.2996,45.92427a4.34028,4.34028 0 1,1 -8.68056,0 4.34028,4.34028 0 1,1 8.68056,0z" transform="matrix(.38542,-.42805,.42805,.38542,400.73941,468.66678)"/>
<path d="m181.2996,45.92427a4.34028,4.34028 0 1,1 -8.68056,0 4.34028,4.34028 0 1,1 8.68056,0z" transform="matrix(.46599,-.33856,.33856,.46599,337.34679,390.05864)"/>
<path d="m181.2996,45.92427a4.34028,4.34028 0 1,1 -8.68056,0 4.34028,4.34028 0 1,1 8.68056,0z" transform="matrix(.46599,-.33856,.33856,.46599,384.38187,454.72702)"/>
<path d="m181.2996,45.92427a4.34028,4.34028 0 1,1 -8.68056,0 4.34028,4.34028 0 1,1 8.68056,0z" transform="matrix(.5262,-.23428,.23428,.5262,338.71809,364.65659)"/>
<path d="m181.2996,45.92427a4.34028,4.34028 0 1,1 -8.68056,0 4.34028,4.34028 0 1,1 8.68056,0z" transform="matrix(.5262,-.23428,.23428,.5262,371.28003,437.69096)"/>
<path d="m181.2996,45.92427a4.34028,4.34028 0 1,1 -8.68056,0 4.34028,4.34028 0 1,1 8.68056,0z" transform="matrix(.56341,-.11976,.11976,.56341,345.34081,340.09476)"/>
<path d="m181.2996,45.92427a4.34028,4.34028 0 1,1 -8.68056,0 4.34028,4.34028 0 1,1 8.68056,0z" transform="matrix(.56341,-.11976,.11976,.56341,362.0065,418.30316)"/>
<path d="m245.19028,205.37218a30.96089,30.96089 0 1,1 -61.92178,0 30.96089,30.96089 0 1,1 61.92178,0z" fill="none" stroke="#000" stroke-width=".9328" transform="matrix(1.03413,0,0,1.03413,237.32615,171.55637)"/>
<path d="m307.7224,218.70058a79.73658,79.73658 0 1,1 -159.47316,0 79.73658,79.73658 0 1,1 159.47316,0z" fill="none" stroke="#000" stroke-width="2.92225" transform="matrix(.46184,0,0,.46184,353.6203,282.89591)"/>
<path d="m457.8758,383.9121 .8113.0101c0,0-1.19311,11.4554-4.74831,43.97248l-4.15252-.0806" fill-rule="evenodd" stroke="#000" stroke-width=".34863"/>
<path d="m459.89045,383.9121-.8113.0101c0,0 1.19311,11.4554 4.74831,43.97248l4.15252-.0806" fill-rule="evenodd" stroke="#000" stroke-width=".34863"/>
<path d="m190.13482,167.29527a8.36443,8.36443 0 1,1 -16.72887,0 8.36443,8.36443 0 1,1 16.72887,0z" stroke="#000" stroke-width=".9" transform="matrix(.30554,0,0,.30554,403.3357,332.76503)"/>
<path d="m249.16716,401.97144-11.99776-1.8425 .51746,12.12737-11.3525-4.29671-2.01527,11.96994-10.21108-6.56313-4.45993,11.28937-8.62339-8.54271-6.70966,10.1154-6.65882-10.14894-8.66615,8.49933-4.40323-11.3116-10.24388,6.51181-1.95519-11.9799-11.37391,4.23969 .5783-12.12462-12.00685,1.78227 3.08651-11.73943-12.11502-.75304 5.45983-10.84118-11.69372-3.25543 7.59453-9.46911-10.76134-5.61556 9.39731-7.68319-9.35864-7.73025 10.78938-5.56149-7.54692-9.5071 11.70991-3.19672-5.40537-10.86844 12.11865-.69223-3.02757-11.75478 11.99776,1.8425-.51746-12.12737 11.3525,4.29671 2.01527-11.96994 10.21108,6.56313 4.45993-11.28937 8.62339,8.54271 6.70966-10.1154 6.65882,10.14894 8.66615-8.49933 4.40323,11.3116 10.24388-6.51181 1.95519,11.9799 11.37391-4.23969-.5783,12.12462 12.00685-1.78227-3.08651,11.73943 12.11502.75304-5.45983,10.84118 11.69372,3.25543-7.59453,9.46911 10.76134,5.61556-9.39731,7.68319 9.35864,7.73025-10.78938,5.56149 7.54692,9.5071-11.70991,3.19672 5.40537,10.86844-12.11865.69223z" fill="none" stroke="#000" stroke-width=".59913" transform="matrix(.50072,0,0,.50073,361.48539,207.37276)"/>
</g>
<g transform="translate(-17.57017,-187.97781)">
<path d="m201.01417,276.3223c-.47735,4.55173-1.81263,9.23311-3.51319,13.59375v4.34375l-1.90625,4.28125v10.91153h10.84375v-10.91153l-1.90625-4.28125v-4.34375c-1.70056-4.36064-3.04071-9.04202-3.51806-13.59375z" fill="#0f0f0f" fill-rule="evenodd"/>
<g transform="translate(-34.31066,-67.75324)">
<path d="m346.87562,372.89707 16.56188-.0448v14.95519l-16.59623.0448 .0343-14.95519z" fill="#0f0f0f" fill-rule="evenodd"/>
<g transform="translate(-14.17456)">
<path d="m372.5625,330.78125-2,5.84375v2.71875l-1.78125,2.96875h-.625v1.40625h-1.3125v8.6875h.6875v35.40625h10.0625v-35.40625h.6875v-8.6875h-1.3125v-1.40625h-.625l-1.78125-2.96875v-2.71875z" fill="#0f0f0f" fill-rule="evenodd"/>
<path d="m279.56907,282.48096a33.94767,33.94767 0 1,1 -67.89534,0 33.94767,33.94767 0 1,1 67.89534,0z" fill="#fff" transform="matrix(.09034,0,0,.09034,350.40513,322.57536)"/>
</g>
</g>
<path d="m108.57012,261.37692-1.75,3.125-.0312,46.88731h19l-.0312-46.88731-1.71875-3.125-1.75,3.125v11.8125l-2.40625-3.5625h-1.90625v-3.25l-1.6875-2.8125-1.6875,2.8125v3.25h-1.90625l-2.40625,3.5625v-11.8125l-1.71875-3.125z" fill="#0f0f0f" fill-rule="evenodd"/>
<path d="m85.70035,290.53748-1.28125,3.25v35.25h11.0625v-35.25l-1.28125-3.25-1.28125,3.25v3.3125h-5.9375v-3.3125z" fill-rule="evenodd"/>
<path d="m106.76286,290.53748-1.28125,3.25v35.25h11.06251v-35.25l-1.28125-3.25-1.28125,3.25v3.3125h-5.93751v-3.3125z" fill-rule="evenodd"/>
<path d="m90.80612,309.38607h19.50121l-.44824,19.64341-19.20322.008 .15024-19.65148z" fill-rule="evenodd"/>
<path d="m98.3469,305.6985-.05279.25c-.29762.18465-.3125.65625-.3125.65625v2.78125h.71875v-2.78125c0,0-.01488-.4716-.3125-.65625z" fill-rule="evenodd"/>
<path d="m101.56566,305.6985-.0528.25c-.29762.18465-.3125.65625-.3125.65625v2.78125h.71875v-2.78125c0,0-.0149-.4716-.3125-.65625z" fill-rule="evenodd"/>
<path d="m105.0761,311.26423h65.05108v17.75835l-65.2896.0149 .23852-17.77322z" fill-rule="evenodd"/>
<path d="m119.40942,307.57673-.0528.25c-.29762.18465-.3125.65625-.3125.65625v2.78125h.71875v-2.78125c0,0-.0149-.4716-.3125-.65625z" fill-rule="evenodd"/>
<path d="m122.62817,307.57673-.0528.25c-.29762.18465-.3125.65625-.3125.65625v2.78125h.71875v-2.78125c0,0-.0149-.4716-.3125-.65625z" fill-rule="evenodd"/>
<path d="m125.84692,307.57673-.0528.25c-.29762.18465-.3125.65625-.3125.65625v2.78125h.71875v-2.78125c0,0-.0149-.4716-.3125-.65625z" fill-rule="evenodd"/>
<path d="m129.06567,307.57673-.0528.25c-.29762.18465-.3125.65625-.3125.65625v2.78125h.71875v-2.78125c0,0-.0149-.4716-.3125-.65625z" fill-rule="evenodd"/>
<path d="m132.28442,307.57673-.0528.25c-.29762.18465-.3125.65625-.3125.65625v2.78125h.71875v-2.78125c0,0-.0149-.4716-.3125-.65625z" fill-rule="evenodd"/>
<path d="m135.50317,307.57673-.0528.25c-.29762.18465-.3125.65625-.3125.65625v2.78125h.71875v-2.78125c0,0-.0149-.4716-.3125-.65625z" fill-rule="evenodd"/>
<path d="m138.72192,307.57673-.0528.25c-.29762.18465-.3125.65625-.3125.65625v2.78125h.71875v-2.78125c0,0-.0149-.4716-.3125-.65625z" fill-rule="evenodd"/>
<path d="m141.94067,307.57673-.0528.25c-.29762.18465-.3125.65625-.3125.65625v2.78125h.71875v-2.78125c0,0-.0149-.4716-.3125-.65625z" fill-rule="evenodd"/>
<path d="m145.15942,307.57673-.0528.25c-.29762.18465-.3125.65625-.3125.65625v2.78125h.71875v-2.78125c0,0-.0149-.4716-.3125-.65625z" fill-rule="evenodd"/>
<path d="m148.37817,307.57673-.0528.25c-.29762.18465-.3125.65625-.3125.65625v2.78125h.71875v-2.78125c0,0-.0149-.4716-.3125-.65625z" fill-rule="evenodd"/>
<path d="m151.59692,307.57673-.0528.25c-.29762.18465-.3125.65625-.3125.65625v2.78125h.71875v-2.78125c0,0-.0149-.4716-.3125-.65625z" fill-rule="evenodd"/>
<path d="m154.81567,307.57673-.0528.25c-.29762.18465-.3125.65625-.3125.65625v2.78125h.71875v-2.78125c0,0-.0149-.4716-.3125-.65625z" fill-rule="evenodd"/>
<path d="m158.03442,307.57673-.0528.25c-.29762.18465-.3125.65625-.3125.65625v2.78125h.71875v-2.78125c0,0-.0149-.4716-.3125-.65625z" fill-rule="evenodd"/>
<path d="m162.82537,290.53748-1.28125,3.25v35.25h11.06251v-35.25l-1.28125-3.25-1.28125,3.25v3.3125h-5.93751v-3.3125z" fill-rule="evenodd"/>
<path d="m230.70781,290.53748-1.28125,3.25v35.25h11.06251v-35.25l-1.28125-3.25-1.28125,3.25v3.3125h-5.93751v-3.3125z" fill-rule="evenodd"/>
<path d="m175.47193,305.34998-.0528.25c-.29762.18465-.3125.65625-.3125.65625v2.78125h.71875v-2.78125c0,0-.0149-.4716-.3125-.65625z" fill-rule="evenodd"/>
<path d="m178.69068,305.34998-.0528.25c-.29762.18465-.3125.65625-.3125.65625v2.78125h.71875v-2.78125c0,0-.0149-.4716-.3125-.65625z" fill-rule="evenodd"/>
<path d="m181.90943,305.34998-.0528.25c-.29762.18465-.3125.65625-.3125.65625v2.78125h.71875v-2.78125c0,0-.0149-.4716-.3125-.65625z" fill-rule="evenodd"/>
<path d="m185.12818,305.34998-.0528.25c-.29762.18465-.3125.65625-.3125.65625v2.78125h.71875v-2.78125c0,0-.0149-.4716-.3125-.65625z" fill-rule="evenodd"/>
<path d="m188.34693,305.34998-.0528.25c-.29762.18465-.3125.65625-.3125.65625v2.78125h.71875v-2.78125c0,0-.0149-.4716-.3125-.65625z" fill-rule="evenodd"/>
<path d="m191.56568,305.34998-.0528.25c-.29762.18465-.3125.65625-.3125.65625v2.78125h.71875v-2.78125c0,0-.0149-.4716-.3125-.65625z" fill-rule="evenodd"/>
<path d="m194.78443,305.34998-.0528.25c-.29762.18465-.3125.65625-.3125.65625v2.78125h.71875v-2.78125c0,0-.0149-.4716-.3125-.65625z" fill-rule="evenodd"/>
<path d="m198.00318,305.34998-.0528.25c-.29762.18465-.3125.65625-.3125.65625v2.78125h.71875v-2.78125c0,0-.0149-.4716-.3125-.65625z" fill-rule="evenodd"/>
<path d="m201.22193,305.34998-.0528.25c-.29762.18465-.3125.65625-.3125.65625v2.78125h.71875v-2.78125c0,0-.0149-.4716-.3125-.65625z" fill-rule="evenodd"/>
<path d="m204.44068,305.34998-.0528.25c-.29762.18465-.3125.65625-.3125.65625v2.78125h.71875v-2.78125c0,0-.0149-.4716-.3125-.65625z" fill-rule="evenodd"/>
<path d="m207.65943,305.34998-.0528.25c-.29762.18465-.3125.65625-.3125.65625v2.78125h.71875v-2.78125c0,0-.0149-.4716-.3125-.65625z" fill-rule="evenodd"/>
<path d="m210.87818,305.34998-.0528.25c-.29762.18465-.3125.65625-.3125.65625v2.78125h.71875v-2.78125c0,0-.0149-.4716-.3125-.65625z" fill-rule="evenodd"/>
<path d="m214.09693,305.34998-.0528.25c-.29762.18465-.3125.65625-.3125.65625v2.78125h.71875v-2.78125c0,0-.0149-.4716-.3125-.65625z" fill-rule="evenodd"/>
<path d="m168.5166,309.03748h65v20h-65z"/>
<path d="m217.31568,305.34998-.0528.25c-.29762.18465-.3125.65625-.3125.65625v2.78125h.71875v-2.78125c0,0-.0149-.4716-.3125-.65625z" fill-rule="evenodd"/>
<path d="m220.53443,305.34998-.0528.25c-.29762.18465-.3125.65625-.3125.65625v2.78125h.71875v-2.78125c0,0-.0149-.4716-.3125-.65625z" fill-rule="evenodd"/>
<path d="m223.75318,305.34998-.0528.25c-.29762.18465-.3125.65625-.3125.65625v2.78125h.71875v-2.78125c0,0-.0149-.4716-.3125-.65625z" fill-rule="evenodd"/>
<path d="m226.97193,305.34998-.0528.25c-.29762.18465-.3125.65625-.3125.65625v2.78125h.71875v-2.78125c0,0-.0149-.4716-.3125-.65625z" fill-rule="evenodd"/>
<path d="m316.33284,290.53748 1.28125,3.25v35.25h-11.06251v-35.25l1.28125-3.25 1.28125,3.25v3.3125h5.93751v-3.3125z" fill-rule="evenodd"/>
<path d="m295.27033,290.42409 1.28125,3.25v35.25h-11.06251v-35.25l1.28125-3.25 1.28125,3.25v3.3125h5.93751v-3.3125z" fill-rule="evenodd"/>
<path d="m311.22706,309.38607h-19.50121l.44824,19.64341 19.20322.008-.15025-19.65148z" fill-rule="evenodd"/>
<path d="m303.68629,305.6985 .0528.25c.29762.18465.3125.65625.3125.65625v2.78125h-.71875v-2.78125c0,0 .0149-.4716.3125-.65625z" fill-rule="evenodd"/>
<path d="m300.46753,305.6985 .0528.25c.29762.18465.3125.65625.3125.65625v2.78125h-.71875v-2.78125c0,0 .0149-.4716.3125-.65625z" fill-rule="evenodd"/>
<path d="m296.95709,311.26423h-65.05108v17.75835l65.2896.0149-.23852-17.77322z" fill-rule="evenodd"/>
<path d="m282.62377,307.57673 .0528.25c.29762.18465.3125.65625.3125.65625v2.78125h-.71875v-2.78125c0,0 .0149-.4716.3125-.65625z" fill-rule="evenodd"/>
<path d="m279.40502,307.57673 .0528.25c.29762.18465.3125.65625.3125.65625v2.78125h-.71875v-2.78125c0,0 .0149-.4716.3125-.65625z" fill-rule="evenodd"/>
<path d="m276.18627,307.57673 .0528.25c.29762.18465.3125.65625.3125.65625v2.78125h-.71875v-2.78125c0,0 .0149-.4716.3125-.65625z" fill-rule="evenodd"/>
<path d="m272.96752,307.57673 .0528.25c.29762.18465.3125.65625.3125.65625v2.78125h-.71875v-2.78125c0,0 .0149-.4716.3125-.65625z" fill-rule="evenodd"/>
<path d="m269.74877,307.57673 .0528.25c.29762.18465.3125.65625.3125.65625v2.78125h-.71875v-2.78125c0,0 .0149-.4716.3125-.65625z" fill-rule="evenodd"/>
<path d="m266.53002,307.57673 .0528.25c.29762.18465.3125.65625.3125.65625v2.78125h-.71875v-2.78125c0,0 .0149-.4716.3125-.65625z" fill-rule="evenodd"/>
<path d="m263.31127,307.57673 .0528.25c.29762.18465.3125.65625.3125.65625v2.78125h-.71875v-2.78125c0,0 .0149-.4716.3125-.65625z" fill-rule="evenodd"/>
<path d="m260.09252,307.57673 .0528.25c.29762.18465.3125.65625.3125.65625v2.78125h-.71875v-2.78125c0,0 .0149-.4716.3125-.65625z" fill-rule="evenodd"/>
<path d="m256.87377,307.57673 .0528.25c.29762.18465.3125.65625.3125.65625v2.78125h-.71875v-2.78125c0,0 .0149-.4716.3125-.65625z" fill-rule="evenodd"/>
<path d="m253.65502,307.57673 .0528.25c.29762.18465.3125.65625.3125.65625v2.78125h-.71875v-2.78125c0,0 .0149-.4716.3125-.65625z" fill-rule="evenodd"/>
<path d="m250.43627,307.57673 .0528.25c.29762.18465.3125.65625.3125.65625v2.78125h-.71875v-2.78125c0,0 .0149-.4716.3125-.65625z" fill-rule="evenodd"/>
<path d="m247.21752,307.57673 .0528.25c.29762.18465.3125.65625.3125.65625v2.78125h-.71875v-2.78125c0,0 .0149-.4716.3125-.65625z" fill-rule="evenodd"/>
<path d="m243.99877,307.57673 .0528.25c.29762.18465.3125.65625.3125.65625v2.78125h-.71875v-2.78125c0,0 .0149-.4716.3125-.65625z" fill-rule="evenodd"/>
</g>
</svg>
